<svg xmlns="http://www.w3.org/2000/svg" width="100" height="100" viewBox="0 0 100 100" fill="none" xmlns:xlink="http://www.w3.org/1999/xlink">
  <!-- Background -->
  <rect width="100" height="100" fill="#A8E4A0" />
  
  <!-- Sugarcane Stalk -->
  <rect x="20" y="10" width="10" height="80" fill="#8BC34A" />
  <rect x="60" y="20" width="10" height="80" fill="#8BC34A" />
  
  <!-- Sugarcane Leaves -->
  <path d="M30 10 C20 20, 40 20, 30 40" fill="#5C965E" />
  <path d="M70 20 C60 30, 80 30, 70 50" fill="#5C965E" />
  <path d="M20 30 C10 40, 30 40, 20 60" fill="#5C965E" />
  <path d="M60 40 C50 50, 70 50, 60 70" fill="#5C965E" />

  <!-- Additional Leaves -->
  <path d="M50 10 C45 15, 55 15, 50 25" fill="#76C568" />
  <path d="M90 50 C85 55, 95 55, 90 65" fill="#76C568" />
</svg>
