<svg xmlns="http://www.w3.org/2000/svg" width="300" height="300" viewBox="0 0 300 300" fill="none">
  <!-- Background -->
  <rect width="300" height="300" fill="#DFFFD6" />

  <!-- Sugarcane Stalks -->
  <rect x="50" y="20" width="15" height="260" rx="7" fill="#8BC34A" />
  <rect x="200" y="50" width="15" height="240" rx="7" fill="#76C568" />

  <!-- Sugarcane Leaves -->
  <path d="M65 20 C40 50, 90 60, 65 100" fill="#5C965E" />
  <path d="M65 70 C40 100, 90 110, 65 150" fill="#5C965E" />
  <path d="M215 50 C190 80, 240 90, 215 130" fill="#5C965E" />
  <path d="M215 120 C190 150, 240 160, 215 200" fill="#5C965E" />

  <!-- Additional Decorative Leaves -->
  <path d="M115 60 C100 90, 130 100, 115 140" fill="#76C568" />
  <path d="M170 10 C155 40, 185 50, 170 90" fill="#76C568" />
</svg>
